<svg width="25" height="14" viewBox="0 0 25 14" fill="none" xmlns="http://www.w3.org/2000/svg">
<path d="M15.7982 8.75448C15.7982 8.01091 15.5028 7.29779 14.977 6.77201C14.4512 6.24622 13.7381 5.95084 12.9945 5.95084C12.4416 5.95192 11.9013 6.11681 11.442 6.42469C10.9827 6.73257 10.6249 7.16964 10.4138 7.68072C10.2026 8.1918 10.1477 8.75397 10.2558 9.29625C10.364 9.83854 10.6304 10.3366 11.0214 10.7276C11.4124 11.1186 11.9105 11.385 12.4527 11.4932C12.995 11.6013 13.5572 11.5464 14.0683 11.3352C14.5794 11.1241 15.0164 10.7663 15.3243 10.307C15.6322 9.84768 15.7971 9.30744 15.7982 8.75448ZM17.6636 8.75448C17.6631 9.79505 17.3145 10.8055 16.6733 11.6251C16.0321 12.4446 15.1352 13.0261 14.1253 13.277C13.1154 13.5279 12.0506 13.4338 11.1004 13.0096C10.1503 12.5855 9.36927 11.8556 8.88179 10.9363C8.39755 11.8502 7.6232 12.5771 6.68058 13.0027C5.73796 13.4283 4.68058 13.5285 3.67483 13.2873C2.66908 13.0462 1.77205 12.4775 1.12489 11.6707C0.477733 10.864 0.117183 9.86495 0.0999756 8.83084V1.07448C0.0999756 0.594477 0.52543 0.179932 1.03816 0.179932C1.55088 0.179932 1.95452 0.594477 1.96543 1.07448V5.02357C2.75088 4.43448 3.72179 4.08539 4.76907 4.08539C6.54725 4.08539 8.09634 5.08902 8.88179 6.56175C9.2783 5.81482 9.87049 5.18979 10.595 4.75357C11.3194 4.31736 12.1489 4.08639 12.9945 4.08539C15.5691 4.08539 17.6636 6.17993 17.6636 8.75448ZM7.56179 8.75448C7.56179 7.20539 6.30725 5.95084 4.76907 5.95084C4.0255 5.95084 3.31238 6.24622 2.7866 6.77201C2.26081 7.29779 1.96543 8.01091 1.96543 8.75448C1.96543 9.4966 2.26024 10.2083 2.785 10.7331C3.30976 11.2579 4.02149 11.5527 4.76361 11.5527C5.50574 11.5527 6.21746 11.2579 6.74223 10.7331C7.26699 10.2083 7.56179 9.4966 7.56179 8.75448ZM23.9254 11.9399C24.0454 12.1145 24.1 12.3108 24.1 12.4963C24.1 12.7799 23.9691 13.0745 23.7291 13.2381C23.5672 13.3558 23.3728 13.4206 23.1727 13.4236C22.9 13.4236 22.6272 13.3036 22.4636 13.0745L20.38 10.3145L18.3182 13.0745C18.1327 13.3036 17.86 13.4236 17.5872 13.4236C17.3909 13.4236 17.1945 13.3581 17.0091 13.2381C16.78 13.0745 16.6491 12.769 16.6491 12.4854C16.6491 12.2999 16.7145 12.1036 16.8236 11.9399L19.1909 8.75448L16.8236 5.55811C16.7078 5.40004 16.6465 5.2086 16.6491 5.01266C16.6491 4.72902 16.78 4.4563 17.0091 4.27084C17.4345 3.96539 18.0018 4.04175 18.3182 4.44539L20.38 7.19448L22.4636 4.44539C22.7472 4.04175 23.3254 3.96539 23.7291 4.27084C23.98 4.4563 24.1 4.73993 24.1 5.03448C24.1 5.21993 24.0454 5.40539 23.9254 5.55811L21.5472 8.75448L23.9254 11.9399Z" fill="#0061D5"/>
</svg>
