<svg width="25" height="24" viewBox="0 0 25 24" fill="none" xmlns="http://www.w3.org/2000/svg">
<g clip-path="url(#clip0_544_2467)">
<mask id="mask0_544_2467" style="mask-type:luminance" maskUnits="userSpaceOnUse" x="0" y="0" width="25" height="24">
<path d="M0.5 0H24.5V24H0.5V0Z" fill="white"/>
</mask>
<g mask="url(#mask0_544_2467)">
</g>
<g clip-path="url(#clip1_544_2467)">
<path d="M2.81444 19.2624L3.87287 21.079C4.09281 21.4615 4.40894 21.762 4.78009 21.9806C5.84322 20.6396 6.58309 19.6106 7.00009 18.8936C7.42319 18.1659 7.94322 17.0276 8.56019 15.4788C6.89744 15.2613 5.63744 15.1526 4.78019 15.1526C3.95734 15.1526 2.69734 15.2613 1 15.4788C1 15.9022 1.10997 16.3256 1.32991 16.7082L2.81444 19.2624Z" fill="#0066DA"/>
<path d="M21.22 21.9806C21.5913 21.762 21.9074 21.4615 22.1273 21.0791L22.5671 20.3278L24.6703 16.7082C24.8862 16.3339 24.9999 15.9102 25.0001 15.4788C23.293 15.2613 22.0353 15.1526 21.227 15.1526C20.3583 15.1526 19.1005 15.2613 17.4537 15.4788C18.0634 17.0361 18.5766 18.1744 18.9933 18.8936C19.4136 19.6192 20.1558 20.6481 21.22 21.9806Z" fill="#EA4335"/>
<path d="M13.0001 7.82955C14.2301 6.35346 15.0778 5.21515 15.543 4.41482C15.9178 3.77035 16.3302 2.74132 16.7802 1.32783C16.409 1.10928 15.9829 1 15.543 1H10.4571C10.0172 1 9.59122 1.12297 9.21997 1.32783C9.79241 2.94897 10.2782 4.10274 10.6772 4.78904C11.1182 5.54754 11.8925 6.56101 13.0001 7.82955Z" fill="#00832D"/>
<path d="M17.44 15.4788H8.56015L4.78015 21.9805C5.15121 22.199 5.57731 22.3083 6.01718 22.3083H19.9829C20.4228 22.3083 20.849 22.1853 21.2201 21.9804L17.4401 15.4788H17.44Z" fill="#2684FC"/>
<path d="M13.0001 7.82952L9.22009 1.32788C8.84884 1.54643 8.53272 1.84687 8.31278 2.22938L1.32991 14.2494C1.11401 14.6236 1.00029 15.0473 1 15.4787H8.56019L13.0001 7.82952Z" fill="#00AC47"/>
<path d="M21.179 8.23942L17.6875 2.22938C17.4676 1.84687 17.1514 1.54643 16.7802 1.32788L13.0002 7.82961L17.4401 15.4788H24.9866C24.9866 15.0553 24.8766 14.632 24.6567 14.2495L21.179 8.23942Z" fill="#FFBA00"/>
</g>
</g>
<defs>
<clipPath id="clip0_544_2467">
<rect width="24" height="24" fill="white" transform="translate(0.5)"/>
</clipPath>
<clipPath id="clip1_544_2467">
<rect width="24" height="21.3333" fill="white" transform="translate(1 1)"/>
</clipPath>
</defs>
</svg>
