<svg width="25" height="24" viewBox="0 0 25 24" fill="none" xmlns="http://www.w3.org/2000/svg">
<g clip-path="url(#clip0_544_2650)">
<mask id="mask0_544_2650" style="mask-type:luminance" maskUnits="userSpaceOnUse" x="0" y="0" width="25" height="24">
<path d="M0.900024 0H24.9V24H0.900024V0Z" fill="white"/>
</mask>
<g mask="url(#mask0_544_2650)">
<path d="M23.2503 1.64993C22.1956 0.596555 20.7659 0.00488281 19.2753 0.00488281C17.7847 0.00488281 16.355 0.596555 15.3003 1.64993L10.5903 6.34493C9.55135 7.40722 8.9696 8.83405 8.9696 10.3199C8.9696 11.8058 9.55135 13.2326 10.5903 14.2949C10.9353 14.6549 11.3253 14.9249 11.7303 15.1649L12.5853 14.3099C13.1553 13.7399 12.9453 13.0799 12.9453 12.6149C12.6181 12.374 12.3463 12.066 12.1479 11.7114C11.9496 11.3568 11.8293 10.964 11.7952 10.5591C11.7611 10.1543 11.814 9.74682 11.9502 9.36408C12.0865 8.98134 12.303 8.63215 12.5853 8.33993L17.2803 3.62993C17.8094 3.10083 18.527 2.80358 19.2753 2.80358C20.0236 2.80358 20.7412 3.10083 21.2703 3.62993C21.7994 4.15904 22.0967 4.87666 22.0967 5.62493C22.0967 6.3732 21.7994 7.09083 21.2703 7.61993L18.1503 10.7249C18.2403 11.2199 18.7803 12.3899 18.5103 14.3249L18.5553 14.3099L23.2503 9.59993C24.3037 8.54524 24.8953 7.11556 24.8953 5.62493C24.8953 4.1343 24.3037 2.70462 23.2503 1.64993Z" fill="#0061D5"/>
<path d="M15.5703 9.32985C15.2301 8.99534 14.8467 8.70779 14.4303 8.47485L13.5753 9.32985C13.0203 9.89985 13.2153 10.5599 13.2303 11.0249C13.5575 11.2657 13.8294 11.5738 14.0277 11.9284C14.2261 12.2829 14.3463 12.6758 14.3804 13.0807C14.4145 13.4855 14.3617 13.893 14.2254 14.2757C14.0891 14.6585 13.8726 15.0076 13.5903 15.2999C13.4103 15.4499 8.61034 20.2649 8.52034 20.3699C7.99123 20.899 7.27361 21.1962 6.52534 21.1962C5.77707 21.1962 5.05945 20.899 4.53034 20.3699C4.00123 19.8407 3.70398 19.1231 3.70398 18.3749C3.70398 17.6266 4.00123 16.909 4.53034 16.3799L8.01034 12.9149C7.92034 12.4199 7.38034 11.2349 7.65034 9.29985L7.62034 9.32985L2.55034 14.3999C1.55674 15.4662 1.01581 16.8765 1.04153 18.3338C1.06724 19.791 1.65758 21.1814 2.68817 22.212C3.71877 23.2426 5.10916 23.833 6.56642 23.8587C8.02368 23.8844 9.43403 23.3435 10.5003 22.3499L15.5703 17.2799C16.6128 16.2194 17.197 14.7919 17.197 13.3049C17.197 11.8178 16.6128 10.3903 15.5703 9.32985Z" fill="#0061D5"/>
</g>
</g>
<defs>
<clipPath id="clip0_544_2650">
<rect width="24" height="24" fill="white" transform="translate(0.900024)"/>
</clipPath>
</defs>
</svg>
