<svg width="25" height="16" viewBox="0 0 25 16" fill="none" xmlns="http://www.w3.org/2000/svg">
<g clip-path="url(#clip0_544_1758)">
<path d="M14.7993 10.642L19.7532 5.90445C18.7242 1.89195 14.6373 -0.526515 10.6248 0.502578C8.81792 0.965971 7.24857 2.08603 6.22302 3.64414C6.29962 3.64227 14.7993 10.642 14.7993 10.642Z" fill="#0364B8"/>
<path d="M9.45161 4.53615L9.45143 4.537C8.50482 3.95071 7.41311 3.64082 6.29965 3.64234C6.27396 3.64234 6.24865 3.64393 6.22296 3.64421C2.91105 3.68528 0.259426 6.40346 0.300395 9.71546C0.315273 10.9168 0.690646 12.086 1.37786 13.0715L8.79958 12.142L14.4896 7.55387L9.45161 4.53615Z" fill="#0078D4"/>
<path d="M19.7532 5.90462C19.6437 5.89686 19.534 5.89277 19.4242 5.89234C18.7596 5.89169 18.102 6.02743 17.492 6.29115L17.4918 6.29068L14.4897 7.55396L17.7993 11.6421L23.7159 13.0803C24.9927 10.7101 24.1062 7.75346 21.7359 6.47659C21.1234 6.14668 20.4474 5.95159 19.7532 5.90462Z" fill="#1490DF"/>
<path d="M1.37793 13.0715C1.93003 13.8653 2.66605 14.5136 3.52313 14.9612C4.38021 15.4088 5.33289 15.6423 6.29981 15.6418H19.4242C20.3042 15.6421 21.1678 15.4041 21.9234 14.9531C22.6791 14.5021 23.2985 13.8549 23.7159 13.0803L14.4897 7.55371L1.37793 13.0715Z" fill="#28A8EA"/>
</g>
<defs>
<clipPath id="clip0_544_1758">
<rect width="24" height="15.4688" fill="white" transform="translate(0.299927 0.265625)"/>
</clipPath>
</defs>
</svg>
