<svg xmlns="http://www.w3.org/2000/svg" width="416.568" height="250" viewBox="0 0 416.568 250">
  <g id="EDITOR" transform="translate(590.568 1904.999)">
    <g id="PDF_TO_PDF" data-name="PDF TO PDF" transform="translate(-1060.028 -2265.741)">
      <path id="Path_142" data-name="Path 142" d="M268.444,162.921,286.989,179.3l-18.546,16.459-1.332-1.506,15.657-13.905H239.5v-2.019h43.273l-15.657-13.905Z" transform="translate(431.886 306.95)" fill="#989898" fill-rule="evenodd"/>
      <g id="Group_6" data-name="Group 6" transform="translate(469.46 360.742)">
        <path id="Path_135" data-name="Path 135" d="M4.019,51.665a4.02,4.02,0,1,1-2.841,1.177,4.005,4.005,0,0,1,2.841-1.177m1.415,2.6a2,2,0,1,0,.586,1.415,1.994,1.994,0,0,0-.586-1.415" transform="translate(0 -29.201)" fill="red" fill-rule="evenodd"/>
        <path id="Path_136" data-name="Path 136" d="M30.328,31.6a1.009,1.009,0,0,1,1.427-1.427l3.278,3.279a1.009,1.009,0,1,1-1.427,1.427Zm-1.693-4.215a1.009,1.009,0,1,1-1.427,1.427L23.93,25.533a1.009,1.009,0,0,1,1.427-1.427Zm3.119,1.427a1.009,1.009,0,0,1-1.427-1.427l3.278-3.278a1.009,1.009,0,0,1,1.427,1.427Zm-4.546,1.361A1.009,1.009,0,1,1,28.635,31.6l-3.278,3.279a1.009,1.009,0,0,1-1.427-1.427Z" transform="translate(-4.574 -23.81)" fill="red" fill-rule="evenodd"/>
      </g>
      <g id="Group_4" data-name="Group 4" transform="translate(831.678 368.489)">
        <path id="Path_137" data-name="Path 137" d="M594.652,79.714a4.02,4.02,0,1,1-2.841,1.177,4,4,0,0,1,2.841-1.177m1.415,2.6a2,2,0,1,0,.585,1.415,1.994,1.994,0,0,0-.585-1.415" transform="translate(-567.837 -51.948)" fill="red" fill-rule="evenodd"/>
        <path id="Path_138" data-name="Path 138" d="M569.06,53.074a1.009,1.009,0,1,1,1.427-1.427l3.278,3.278a1.009,1.009,0,1,1-1.427,1.428Zm-1.693-4.215a1.009,1.009,0,0,1-1.427,1.427l-3.278-3.278a1.009,1.009,0,0,1,1.427-1.427Zm3.12,1.427a1.009,1.009,0,0,1-1.427-1.427l3.278-3.278a1.009,1.009,0,0,1,1.427,1.427Zm-4.546,1.361a1.009,1.009,0,1,1,1.427,1.427l-3.278,3.279a1.009,1.009,0,1,1-1.427-1.428Z" transform="translate(-562.367 -45.285)" fill="red" fill-rule="evenodd"/>
      </g>
      <path id="Path_143" data-name="Path 143" d="M319.767,79.653a4.02,4.02,0,1,1-2.841,1.177,4,4,0,0,1,2.841-1.177m1.415,2.6a2,2,0,1,0,.586,1.415,1.992,1.992,0,0,0-.586-1.415" transform="translate(404.136 340.782)" fill="red" fill-rule="evenodd"/>
      <g id="Group_5" data-name="Group 5" transform="translate(648.586 581.831)">
        <path id="Path_140" data-name="Path 140" d="M212.182,339.17a4.02,4.02,0,1,1-2.841,1.177,4.007,4.007,0,0,1,2.841-1.177m1.415,2.6a2,2,0,1,0,.586,1.415,1.994,1.994,0,0,0-.586-1.415" transform="translate(-208.163 -318.296)" fill="red" fill-rule="evenodd"/>
        <path id="Path_141" data-name="Path 141" d="M238.939,321.076a1.009,1.009,0,1,1,1.427-1.427l3.278,3.278a1.009,1.009,0,0,1-1.427,1.427Zm-1.693-4.215a1.009,1.009,0,1,1-1.427,1.427l-3.278-3.279a1.009,1.009,0,0,1,1.427-1.426Zm3.119,1.427a1.009,1.009,0,1,1-1.427-1.427l3.278-3.278a1.009,1.009,0,0,1,1.427,1.426Zm-4.546,1.361a1.009,1.009,0,1,1,1.427,1.427l-3.278,3.279a1.009,1.009,0,0,1-1.427-1.427Z" transform="translate(-212.824 -313.287)" fill="red" fill-rule="evenodd"/>
      </g>
      <g id="PDF" transform="translate(484.838 391.243)">
        <path id="Path_120" data-name="Path 120" d="M27.184,68.718H133.926l39.784,40.317V256.278a2.024,2.024,0,0,1-2.018,2.018H27.184a2.024,2.024,0,0,1-2.018-2.018V70.736a2.024,2.024,0,0,1,2.018-2.018" transform="translate(-10.466 -68.214)" fill="#f4f4f4" fill-rule="evenodd"/>
        <path id="Path_121" data-name="Path 121" d="M27.063,68.093H134.015l39.933,40.469.146.352V256.157a2.529,2.529,0,0,1-2.523,2.523H27.063a2.529,2.529,0,0,1-2.522-2.523V70.615a2.53,2.53,0,0,1,2.522-2.522M133.6,69.1H27.063a1.514,1.514,0,0,0-1.513,1.513V256.157a1.514,1.514,0,0,0,1.513,1.513H171.571a1.519,1.519,0,0,0,1.514-1.513V109.119Z" transform="translate(-10.345 -68.093)" fill="#b2b2b2" fill-rule="evenodd"/>
        <rect id="Rectangle_78" data-name="Rectangle 78" width="82.857" height="41.03" transform="translate(0 120.948)" fill="red"/>
        <rect id="Rectangle_79" data-name="Rectangle 79" width="87.617" height="6.054" transform="translate(45.727 67.348)" fill="red"/>
        <rect id="Rectangle_80" data-name="Rectangle 80" width="87.617" height="3.028" transform="translate(45.727 87.999)" fill="#989898"/>
        <rect id="Rectangle_81" data-name="Rectangle 81" width="87.617" height="3.028" transform="translate(45.727 105.45)" fill="#989898"/>
        <rect id="Rectangle_82" data-name="Rectangle 82" width="36.171" height="3.028" transform="translate(97.173 122.701)" fill="#989898"/>
        <rect id="Rectangle_83" data-name="Rectangle 83" width="36.171" height="3.028" transform="translate(97.173 140.006)" fill="#989898"/>
        <rect id="Rectangle_84" data-name="Rectangle 84" width="36.171" height="3.028" transform="translate(97.173 157.309)" fill="#989898"/>
        <path id="Path_122" data-name="Path 122" d="M199.808,109.035,160.025,68.718v38.3a2.023,2.023,0,0,0,2.018,2.018Z" transform="translate(-36.564 -68.214)" fill="#b2b2b2" fill-rule="evenodd"/>
        <path id="Path_171" data-name="Path 171" d="M6.089-7.264V0H1.841V-20.617H9.884a9.305,9.305,0,0,1,4.085.85,6.261,6.261,0,0,1,2.712,2.414,6.732,6.732,0,0,1,.949,3.561,5.92,5.92,0,0,1-2.074,4.779A8.64,8.64,0,0,1,9.813-7.264Zm0-3.441H9.884a3.731,3.731,0,0,0,2.57-.793,2.884,2.884,0,0,0,.885-2.266,3.4,3.4,0,0,0-.892-2.45,3.332,3.332,0,0,0-2.464-.963H6.089ZM21.358,0V-20.617H27.7a9.634,9.634,0,0,1,4.864,1.225,8.541,8.541,0,0,1,3.349,3.483,10.744,10.744,0,0,1,1.2,5.133v.949a10.774,10.774,0,0,1-1.182,5.112A8.468,8.468,0,0,1,32.6-1.246,9.706,9.706,0,0,1,27.745,0Zm4.248-17.176V-3.413H27.66a4.613,4.613,0,0,0,3.809-1.628A7.359,7.359,0,0,0,32.814-9.7v-1.09a7.476,7.476,0,0,0-1.3-4.765A4.6,4.6,0,0,0,27.7-17.176ZM53.451-8.425H45.295V0H41.047V-20.617H54.47v3.441H45.295v5.324h8.156Z" transform="translate(12.411 151.708)" fill="#fff"/>
      </g>
      <g id="PDF-2" data-name="PDF" transform="translate(726.929 413.359)">
        <path id="Path_120-2" data-name="Path 120" d="M26.716,68.718H108.7l30.558,30.968v113.1a1.554,1.554,0,0,1-1.55,1.55h-111a1.555,1.555,0,0,1-1.55-1.55V70.268a1.555,1.555,0,0,1,1.55-1.55" transform="translate(-13.875 -68.331)" fill="#f4f4f4" fill-rule="evenodd"/>
        <path id="Path_121-2" data-name="Path 121" d="M26.478,68.093h82.15L139.3,99.177l.112.271v113.1a1.943,1.943,0,0,1-1.938,1.938h-111a1.943,1.943,0,0,1-1.937-1.938V70.03a1.944,1.944,0,0,1,1.937-1.937m81.829.775H26.478a1.163,1.163,0,0,0-1.162,1.162V212.545a1.163,1.163,0,0,0,1.162,1.162h111a1.166,1.166,0,0,0,1.163-1.162V99.605Z" transform="translate(-13.637 -68.093)" fill="#b2b2b2" fill-rule="evenodd"/>
        <rect id="Rectangle_78-2" data-name="Rectangle 78" width="63.642" height="31.515" transform="translate(0 92.901)" fill="red"/>
        <rect id="Rectangle_79-2" data-name="Rectangle 79" width="67.299" height="4.65" transform="translate(35.123 51.73)" fill="red"/>
        <rect id="Rectangle_80-2" data-name="Rectangle 80" width="67.299" height="2.325" transform="translate(35.123 67.592)" fill="#989898"/>
        <rect id="Rectangle_81-2" data-name="Rectangle 81" width="67.299" height="2.325" transform="translate(35.123 80.996)" fill="#989898"/>
        <rect id="Rectangle_82-2" data-name="Rectangle 82" width="27.783" height="2.325" transform="translate(74.639 94.247)" fill="#989898"/>
        <rect id="Rectangle_83-2" data-name="Rectangle 83" width="27.783" height="2.325" transform="translate(74.639 107.538)" fill="#989898"/>
        <rect id="Rectangle_84-2" data-name="Rectangle 84" width="27.783" height="2.325" transform="translate(74.639 120.829)" fill="#989898"/>
        <path id="Path_122-2" data-name="Path 122" d="M190.582,99.686,160.025,68.718V98.136a1.554,1.554,0,0,0,1.55,1.55Z" transform="translate(-65.195 -68.331)" fill="#b2b2b2" fill-rule="evenodd"/>
        <path id="Path_177" data-name="Path 177" d="M4.409-5.26V0H1.333V-14.93H7.157a6.738,6.738,0,0,1,2.958.615,4.534,4.534,0,0,1,1.964,1.748,4.875,4.875,0,0,1,.687,2.579,4.287,4.287,0,0,1-1.5,3.461A6.257,6.257,0,0,1,7.106-5.26Zm0-2.492H7.157a2.7,2.7,0,0,0,1.861-.574,2.088,2.088,0,0,0,.641-1.641,2.463,2.463,0,0,0-.646-1.774,2.413,2.413,0,0,0-1.784-.7H4.409ZM15.466,0V-14.93H20.06a6.976,6.976,0,0,1,3.522.887,6.185,6.185,0,0,1,2.425,2.522A7.78,7.78,0,0,1,26.879-7.8v.687a7.8,7.8,0,0,1-.856,3.7A6.132,6.132,0,0,1,23.608-.9a7.029,7.029,0,0,1-3.517.9Zm3.076-12.438v9.967h1.487A3.341,3.341,0,0,0,22.788-3.65a5.329,5.329,0,0,0,.974-3.374v-.79a5.413,5.413,0,0,0-.943-3.45,3.329,3.329,0,0,0-2.758-1.174ZM38.706-6.1H32.8V0H29.723V-14.93h9.721v2.492H32.8v3.855h5.906Z" transform="translate(9.533 115.02)" fill="#fff"/>
      </g>
    </g>
    <rect id="Rectangle_127" data-name="Rectangle 127" width="50" height="50" rx="3" transform="translate(-224 -1801)" fill="#b2b2b2"/>
    <g id="edit" transform="translate(-213.098 -1792.5)">
      <path id="Path_226" data-name="Path 226" d="M24.729,96.229a1.3,1.3,0,0,0-1.3,1.3v10.412a1.3,1.3,0,0,1-1.3,1.3H3.9a1.3,1.3,0,0,1-1.3-1.3V89.721a1.3,1.3,0,0,1,1.3-1.3H14.317a1.3,1.3,0,0,0,0-2.6H3.9a3.909,3.909,0,0,0-3.9,3.9v18.222a3.909,3.909,0,0,0,3.9,3.9H22.126a3.909,3.909,0,0,0,3.9-3.9V97.53a1.3,1.3,0,0,0-1.3-1.3Zm0,0" transform="translate(0 -80.11)" fill="#fff"/>
      <path id="Path_227" data-name="Path 227" d="M182.92,78.56a.658.658,0,0,0-.178.332l-.92,4.6a.65.65,0,0,0,.639.778.619.619,0,0,0,.128-.013l4.6-.92a.648.648,0,0,0,.333-.179l10.3-10.3-4.6-4.6Zm0,0" transform="translate(-170.716 -63.627)" fill="#fff"/>
      <path id="Path_228" data-name="Path 228" d="M397.848,1.453a3.256,3.256,0,0,0-4.6,0l-1.8,1.8,4.6,4.6,1.8-1.8a3.253,3.253,0,0,0,0-4.6Zm0,0" transform="translate(-367.564 0)" fill="#fff"/>
    </g>
  </g>
</svg>
